<svg width="20" height="20" viewBox="0 0 20 20" fill="none" xmlns="http://www.w3.org/2000/svg">
<path d="M19.4281 2.73427C19.1339 2.43954 18.6565 2.43904 18.3623 2.73302L9.31959 11.7518L6.05701 8.20837C5.77509 7.90236 5.29845 7.88251 4.99193 8.16439C4.68564 8.4463 4.66603 8.92318 4.94795 9.22947L8.74193 13.3498C8.88088 13.5008 9.07533 13.5885 9.28037 13.5928C9.28588 13.593 9.29119 13.593 9.29646 13.593C9.49572 13.593 9.6874 13.5139 9.82861 13.3732L19.4266 3.80033C19.7216 3.50638 19.7221 3.029 19.4281 2.73427Z" fill="#006FCF"/>
<path d="M19.2462 9.24621C18.8299 9.24621 18.4925 9.58363 18.4925 10C18.4925 14.6829 14.6829 18.4925 10 18.4925C5.31734 18.4925 1.50754 14.6829 1.50754 10C1.50754 5.31734 5.31734 1.50754 10 1.50754C10.4163 1.50754 10.7538 1.17012 10.7538 0.753789C10.7538 0.337422 10.4163 0 10 0C4.48594 0 0 4.48594 0 10C0 15.5138 4.48594 20 10 20C15.5138 20 20 15.5138 20 10C20 9.58367 19.6626 9.24621 19.2462 9.24621Z" fill="#006FCF"/>
</svg>
