<svg width="24" height="16" viewBox="0 0 24 16" fill="none" xmlns="http://www.w3.org/2000/svg">
<path d="M20.7273 0H2.54545C1.14191 0 0 1.14191 0 2.54545V13.4545C0 14.8581 1.14191 16 2.54545 16H20.7273C22.1308 16 23.2727 14.8581 23.2727 13.4545V2.54545C23.2727 1.14191 22.1308 0 20.7273 0ZM2.54545 1.45455H20.7273C21.3288 1.45455 21.8182 1.94395 21.8182 2.54545V4H1.45455V2.54545C1.45455 1.94395 1.94395 1.45455 2.54545 1.45455ZM20.7273 14.5455H2.54545C1.94395 14.5455 1.45455 14.056 1.45455 13.4545V5.45455H21.8182V13.4545C21.8182 14.056 21.3288 14.5455 20.7273 14.5455Z" fill="#006FCF"/>
<path d="M5.39661 9.37725H6.51807V10.8423C6.33463 10.8995 6.15814 10.9401 5.9886 10.9641C5.82046 10.988 5.63841 11 5.44247 11C4.9811 11 4.62535 10.8696 4.37521 10.6088C4.12507 10.3466 4 9.97738 4 9.501C4 9.03127 4.14105 8.66401 4.42315 8.3992C4.70525 8.13307 5.09366 8 5.58838 8C5.90661 8 6.20817 8.05855 6.49305 8.17565L6.31795 8.57285C6.07059 8.46374 5.82324 8.40918 5.57588 8.40918C5.25069 8.40918 4.99361 8.50699 4.80461 8.70259C4.61562 8.8982 4.52112 9.16567 4.52112 9.50499C4.52112 9.86161 4.60589 10.1331 4.77543 10.3194C4.94636 10.5043 5.19163 10.5968 5.51126 10.5968C5.67246 10.5968 5.84477 10.5775 6.02821 10.5389V9.78643H5.39661V9.37725Z" fill="#006FCF"/>
<path d="M6.99958 10.0639V9.66467H8.07101V10.0639H6.99958Z" fill="#006FCF"/>
<path d="M9.92412 8.40918C9.63785 8.40918 9.41273 8.50632 9.24875 8.7006C9.08477 8.89488 9.00278 9.16301 9.00278 9.50499C9.00278 9.86294 9.0813 10.1337 9.23833 10.3174C9.39675 10.501 9.62535 10.5928 9.92412 10.5928C10.0534 10.5928 10.1784 10.5808 10.2993 10.5569C10.4202 10.5316 10.546 10.4997 10.6766 10.4611V10.8703C10.4376 10.9568 10.1666 11 9.86367 11C9.41759 11 9.07504 10.8709 8.83602 10.6128C8.597 10.3533 8.47749 9.9827 8.47749 9.501C8.47749 9.1976 8.53516 8.93214 8.6505 8.70459C8.76723 8.47705 8.93538 8.30273 9.15495 8.18164C9.37451 8.06055 9.6323 8 9.92829 8C10.2396 8 10.5272 8.06254 10.7913 8.18762L10.612 8.58483C10.5092 8.53826 10.4001 8.49767 10.2847 8.46307C10.1708 8.42715 10.0506 8.40918 9.92412 8.40918Z" fill="#006FCF"/>
<path d="M11.3332 10.9601V8.04192H11.8314V10.5509H13.1217V10.9601H11.3332Z" fill="#006FCF"/>
<path d="M16.0359 8.04192V9.93014C16.0359 10.1457 15.9872 10.3347 15.8899 10.497C15.7941 10.658 15.6544 10.7824 15.471 10.8703C15.2889 10.9568 15.0707 11 14.8164 11C14.4384 11 14.1445 10.9042 13.9347 10.7126C13.7248 10.521 13.6199 10.2575 13.6199 9.92216V8.04192H14.1202V9.88822C14.1202 10.1291 14.1786 10.3067 14.2953 10.4212C14.412 10.5356 14.5913 10.5928 14.8331 10.5928C15.3028 10.5928 15.5377 10.3566 15.5377 9.88423V8.04192H16.0359Z" fill="#006FCF"/>
<path d="M16.8155 8.04192H17.7201C18.1398 8.04192 18.4427 8.10047 18.629 8.21756C18.8166 8.33466 18.9104 8.51963 18.9104 8.77246C18.9104 8.94278 18.8645 9.0845 18.7728 9.1976C18.6811 9.31071 18.5491 9.3819 18.3767 9.41118V9.43114C18.5907 9.46973 18.7478 9.54624 18.8478 9.66068C18.9493 9.77379 19 9.92748 19 10.1218C19 10.3839 18.9041 10.5895 18.7123 10.7385C18.522 10.8862 18.2565 10.9601 17.9161 10.9601H16.8155V8.04192ZM17.3136 9.2475H17.7931C18.0015 9.2475 18.1537 9.21623 18.2496 9.15369C18.3455 9.08982 18.3934 8.98204 18.3934 8.83034C18.3934 8.69328 18.3413 8.59415 18.2371 8.53293C18.1342 8.47172 17.9703 8.44112 17.7451 8.44112H17.3136V9.2475ZM17.3136 9.63473V10.5589H17.8431C18.0516 10.5589 18.2086 10.521 18.3142 10.4451C18.4212 10.3679 18.4747 10.2468 18.4747 10.0818C18.4747 9.93014 18.4205 9.8177 18.3121 9.74451C18.2037 9.67132 18.039 9.63473 17.8181 9.63473H17.3136Z" fill="#006FCF"/>
</svg>
